P2
109 42
255
253 249 245 242 239 234 231 227 223 215 211 207 202 197 193 189 185 181 176 172 168 163 159 155 152 147 158 183 211 236 245 239 231 228 224 221 218 215 211 208 204 201 198 194 191 188 184 181 177 174 170 166 164 159 158 153 150 148 143 140 137 133 130 126 121 118 112 108 107 105 103 102 99 148 165 158 155 151 149 145 141 138 134 131 127 124 120 115 110 107 107 104 102 99 136 161 155 150 146 142 138 133 129 124 119 113 109 107 104 
253 249 244 241 237 232 228 224 220 215 211 207 202 197 193 189 185 181 176 172 168 163 159 155 152 147 142 136 135 146 175 216 234 228 221 217 214 210 206 202 198 194 191 187 183 179 175 172 168 164 160 156 152 148 145 141 137 134 130 126 122 118 114 110 105 100 94 90 89 86 84 82 79 134 153 146 142 138 135 131 127 123 120 116 112 108 103 97 92 89 88 85 83 121 153 147 142 137 133 129 123 118 113 108 102 95 91 88 85 
253 249 244 241 237 232 228 224 220 215 211 207 202 197 193 189 185 181 176 172 168 163 159 155 152 147 143 138 134 127 118 123 164 218 227 218 214 210 206 202 198 194 191 187 183 179 175 172 168 164 160 156 152 148 145 141 137 134 130 126 122 118 114 110 105 100 94 90 89 86 84 82 79 134 153 146 142 138 135 131 127 123 120 116 112 108 103 97 92 89 85 87 134 162 153 147 142 137 133 129 123 118 113 108 102 95 91 88 85 
253 249 244 241 237 232 228 224 220 215 211 207 202 197 193 189 185 181 176 172 168 163 159 155 152 147 143 138 134 130 125 120 109 124 190 225 215 210 206 202 198 194 191 187 183 179 175 172 168 164 160 156 152 148 145 141 137 134 130 126 122 118 114 110 105 100 94 90 89 86 84 82 79 134 153 146 142 138 135 131 127 123 120 116 112 108 103 97 92 87 92 144 167 157 152 147 142 137 133 129 123 118 113 108 102 95 91 88 85 
253 249 244 241 237 232 228 224 220 215 211 207 202 197 193 189 185 181 176 172 168 163 159 155 152 147 143 138 134 130 125 121 117 108 106 168 220 211 206 202 198 194 191 187 183 179 175 172 168 164 160 156 152 148 145 141 137 134 130 126 122 118 114 110 105 100 94 90 89 86 84 82 79 134 153 146 142 138 135 131 127 123 120 116 112 108 103 98 89 100 156 171 161 157 152 147 142 137 133 129 123 118 113 108 102 95 91 88 85 
253 249 244 241 237 232 228 224 220 215 211 207 202 197 193 189 185 181 176 172 168 163 159 155 152 147 143 138 134 130 125 121 117 113 106 96 158 215 207 202 198 194 191 187 183 179 175 172 168 164 160 156 152 148 145 141 137 134 130 126 122 118 114 110 105 100 94 90 89 86 84 82 79 134 153 146 142 138 135 131 127 123 120 116 112 108 103 92 109 166 175 166 161 157 152 147 142 137 133 129 123 118 113 108 102 95 91 88 85 
253 249 244 241 237 232 228 224 220 215 211 207 202 197 193 189 185 181 176 172 168 163 159 155 152 147 143 138 134 130 125 121 117 112 108 101 91 161 213 202 198 194 191 187 183 179 175 172 168 164 160 156 152 148 145 141 137 134 130 126 122 118 114 110 105 100 94 90 89 86 84 82 79 134 153 146 142 138 135 131 127 123 120 116 112 108 98 121 175 180 170 166 161 157 152 147 142 137 133 129 123 118 113 108 102 95 91 88 85 
253 249 244 241 237 232 228 224 220 215 211 207 202 197 193 189 185 181 176 172 168 163 159 155 152 147 143 138 134 130 125 121 117 112 108 102 94 91 178 208 198 194 191 187 183 179 175 172 168 164 160 156 152 148 145 141 137 134 130 126 122 118 114 110 105 100 94 90 89 86 84 82 79 134 153 146 142 138 135 131 127 123 120 116 111 102 135 184 183 175 171 166 161 157 152 147 142 137 133 129 123 118 113 108 102 95 91 88 85 
253 249 244 241 237 232 228 224 220 215 211 207 202 197 193 189 185 181 176 172 168 163 159 155 152 147 143 138 134 130 125 121 117 112 108 102 96 88 105 196 201 194 191 187 183 179 175 172 168 164 160 156 152 148 145 141 137 134 130 126 122 118 114 110 105 100 94 90 89 86 84 82 79 134 153 146 142 138 135 131 127 123 120 114 108 147 193 188 180 175 171 166 161 157 152 147 142 137 133 129 123 118 113 108 102 95 91 88 85 
253 249 244 241 237 232 228 224 220 215 211 207 202 197 193 189 185 181 176 172 168 163 159 155 152 147 143 138 134 130 125 121 117 112 108 102 96 91 84 137 205 194 191 187 183 179 175 172 168 164 160 156 152 148 145 141 137 134 130 126 122 118 114 110 105 100 94 90 89 86 84 82 79 134 153 146 142 138 135 131 127 124 118 113 159 199 191 185 181 175 171 166 161 157 152 147 142 137 133 129 123 118 113 108 102 95 91 88 85 
253 249 244 241 237 232 228 224 220 215 211 207 202 197 193 189 185 181 176 172 168 163 159 155 152 147 143 138 134 130 125 121 117 112 108 102 96 91 88 89 181 199 191 187 183 179 175 172 168 164 160 156 152 148 145 141 137 134 130 126 122 118 114 110 105 100 94 90 89 86 84 82 79 134 153 146 142 138 135 131 128 121 120 172 205 195 190 186 181 175 171 166 161 157 152 147 142 137 133 129 123 118 113 108 102 95 91 88 85 
253 249 244 241 237 232 228 224 220 215 211 207 202 197 193 189 185 181 176 172 168 163 159 155 152 147 143 138 134 130 125 121 117 112 108 102 96 91 89 82 129 200 191 187 183 179 175 172 168 163 156 152 148 144 141 136 133 129 126 122 118 114 109 105 101 96 90 87 86 83 82 80 77 133 153 146 142 138 135 131 123 128 185 210 199 194 190 186 181 175 171 166 161 157 152 147 142 137 133 129 123 118 113 108 102 95 91 88 85 
253 249 244 241 237 232 228 224 220 215 211 207 202 197 193 189 185 181 176 172 168 163 159 155 152 147 143 138 134 130 125 121 117 112 108 102 96 91 88 85 90 183 194 187 183 179 175 172 166 173 190 184 181 177 174 169 166 163 158 155 150 147 143 139 134 130 125 121 119 116 112 110 106 141 152 146 142 138 135 126 137 196 215 204 199 194 190 186 181 175 171 166 161 157 152 147 142 137 133 129 123 118 113 108 102 95 91 88 85 
253 249 244 241 237 232 228 224 220 215 211 207 202 197 193 189 185 181 176 172 168 163 159 155 152 147 143 138 134 130 125 121 117 112 108 102 96 91 88 86 79 149 198 187 183 179 175 172 163 189 248 240 236 232 229 225 221 218 214 210 206 203 199 195 191 187 184 180 176 172 168 165 161 155 150 146 142 138 129 147 207 218 209 204 199 194 190 186 181 175 171 166 161 157 152 147 142 137 133 129 123 118 113 108 102 95 91 88 85 
253 249 244 241 237 232 228 224 220 215 211 207 202 197 193 189 185 181 176 172 168 163 159 155 152 147 143 138 134 130 125 121 117 112 108 102 96 91 88 86 80 113 194 187 183 179 175 172 163 188 245 237 233 229 226 222 218 215 210 206 203 199 195 192 188 184 180 176 172 168 165 161 157 154 150 146 142 133 159 219 223 214 209 204 199 194 190 186 181 175 171 166 161 157 152 147 142 137 133 129 123 118 113 108 102 95 91 88 85 
253 249 244 241 237 232 228 224 220 215 211 207 202 197 193 189 185 181 176 172 168 163 159 155 152 147 143 138 134 130 125 121 117 112 108 102 96 91 88 86 82 90 181 189 183 179 175 172 163 188 245 237 233 229 226 222 218 215 210 206 203 199 195 192 188 184 180 176 172 168 165 161 157 154 150 145 136 171 226 226 219 214 209 204 199 194 190 186 181 175 171 166 161 157 152 147 142 137 133 129 123 118 113 108 102 95 91 88 85 
253 249 244 241 237 232 228 224 220 215 211 207 202 197 193 189 185 181 176 172 168 163 159 155 152 147 143 138 134 130 125 121 117 112 108 102 96 91 88 86 83 80 163 191 183 179 175 172 163 188 245 237 233 229 226 222 218 215 210 206 203 199 195 192 188 184 180 176 172 168 165 161 157 154 149 142 184 235 230 223 219 214 209 204 199 194 190 186 181 175 171 166 161 157 152 147 142 137 133 129 123 118 113 108 102 95 91 88 85 
253 249 244 241 237 232 228 224 220 215 211 207 202 197 193 189 185 181 176 172 168 163 159 155 152 147 143 138 134 130 125 121 117 112 108 102 96 91 88 86 84 78 144 194 183 179 175 172 163 188 246 238 234 230 227 223 219 216 211 207 204 200 196 193 189 185 180 176 172 168 165 161 157 152 147 198 242 235 228 223 219 214 209 204 199 194 190 186 181 175 171 166 161 157 152 147 142 137 133 129 123 118 113 108 102 95 91 88 85 
253 249 244 241 237 232 228 224 220 215 211 207 202 197 193 189 185 181 176 172 168 163 159 155 152 147 143 138 134 130 125 121 117 112 108 102 96 91 88 86 84 77 131 194 183 179 175 172 164 187 243 235 231 227 224 220 216 213 209 204 201 197 193 190 186 182 180 176 172 168 165 161 156 158 211 248 238 233 228 223 219 214 209 204 199 194 190 186 181 175 171 166 161 157 152 147 142 137 133 129 123 118 113 108 102 95 91 88 85 
253 249 244 241 237 232 228 224 220 215 211 207 202 197 193 189 185 181 176 172 168 163 159 155 152 147 143 138 134 130 125 121 117 112 108 102 96 91 88 86 84 78 122 192 184 179 175 172 167 168 175 170 166 162 159 155 151 148 144 140 136 132 128 124 120 114 163 180 172 168 165 161 153 189 255 243 237 233 228 223 219 214 209 204 199 194 190 186 181 175 171 166 161 157 152 147 142 137 133 129 123 118 113 108 102 95 91 88 85 
253 249 244 241 237 232 228 224 220 215 211 207 202 197 193 189 185 181 176 172 168 163 159 155 152 147 143 138 134 130 125 121 117 112 108 102 96 91 88 86 84 79 115 190 184 179 175 172 168 163 157 153 149 145 142 138 135 131 128 124 119 116 112 107 102 96 159 180 172 168 165 161 157 152 206 249 238 233 228 223 219 214 209 204 199 194 190 186 181 175 171 166 161 157 152 147 142 137 133 129 123 118 113 108 102 95 91 88 85 
253 249 244 241 237 232 228 224 220 215 211 207 202 197 193 189 185 181 176 172 168 163 159 155 152 147 143 138 134 130 125 121 117 112 108 102 96 91 88 86 84 79 113 190 184 179 175 172 168 164 160 156 152 148 145 141 137 134 130 126 122 118 114 110 105 99 159 180 172 168 165 161 157 152 148 204 244 233 228 223 219 214 209 204 199 194 190 186 181 175 171 166 161 157 152 147 142 137 133 129 123 118 113 108 102 95 91 88 85 
253 249 244 241 237 232 228 224 220 215 211 207 202 197 193 189 185 181 176 172 168 163 159 155 152 147 143 138 134 130 125 121 117 112 108 102 96 91 88 86 84 78 122 192 184 179 175 172 168 164 160 156 152 148 145 141 137 134 130 126 122 118 114 110 105 99 159 180 172 168 165 161 157 154 148 145 205 239 228 223 219 214 209 204 199 194 190 186 181 175 171 166 161 157 152 147 142 137 133 129 123 118 113 108 102 95 91 88 85 
253 249 244 241 237 232 228 224 220 215 211 207 202 197 193 189 185 181 176 172 168 163 159 155 152 147 143 138 134 130 125 121 117 112 108 102 96 91 88 86 84 77 129 194 184 179 175 172 168 164 160 156 152 148 145 141 137 134 130 126 122 118 114 110 105 99 159 180 172 168 165 161 157 154 150 144 142 202 234 223 219 214 209 204 199 194 190 186 181 175 171 166 161 157 152 147 142 137 133 129 123 118 113 108 102 95 91 88 85 
253 249 244 241 237 232 228 224 220 215 211 207 202 197 193 189 185 181 176 172 168 163 159 155 152 147 143 138 134 130 125 121 117 112 108 102 96 91 88 86 84 78 141 194 183 179 175 172 168 164 160 156 152 148 145 141 137 134 130 126 122 118 114 110 105 99 159 180 172 168 165 161 157 154 150 146 139 140 202 228 219 214 209 204 199 194 190 186 181 175 171 166 161 157 152 147 142 137 133 129 123 118 113 108 102 95 91 88 85 
253 249 244 241 237 232 228 224 220 215 211 207 202 197 193 189 185 181 176 172 168 163 159 155 152 147 143 138 134 130 125 121 117 112 108 102 96 91 88 86 83 79 160 192 183 179 175 172 168 164 160 156 152 148 145 141 137 134 130 126 122 118 114 110 105 99 159 180 172 168 165 161 157 154 150 146 143 135 137 201 225 214 209 204 199 194 190 186 181 175 171 166 161 157 152 147 142 137 133 129 123 118 113 108 102 95 91 88 85 
253 249 244 241 237 232 228 224 220 215 211 207 202 197 193 189 185 181 176 172 168 163 159 155 152 147 143 138 134 130 125 121 117 112 108 102 96 91 88 86 82 87 178 190 183 179 175 172 168 164 160 156 152 148 145 141 137 134 130 126 122 118 114 110 105 99 159 180 172 168 165 161 157 154 150 146 142 138 132 136 199 219 209 204 199 194 190 186 181 175 171 166 161 157 152 147 142 137 133 129 123 118 113 108 102 95 91 88 85 
253 249 244 241 237 232 228 224 220 215 211 207 202 197 193 189 185 181 176 172 168 163 159 155 152 147 143 138 134 130 125 121 117 112 108 102 96 91 88 86 81 107 192 188 183 179 175 172 168 164 160 156 152 148 145 141 137 134 130 126 122 118 114 110 105 99 159 180 172 168 165 161 157 154 150 146 142 138 135 127 133 199 214 204 199 194 190 186 181 175 171 166 161 157 152 147 142 137 133 129 123 118 113 108 102 95 91 88 85 
253 249 244 241 237 232 228 224 220 215 211 207 202 197 193 189 185 181 176 172 168 163 159 155 152 147 143 138 134 130 125 121 117 112 108 102 96 91 88 86 79 139 198 187 183 179 175 172 168 163 158 154 151 146 143 139 135 132 128 125 120 117 113 109 103 97 159 180 172 168 165 161 157 154 150 146 142 138 135 131 123 132 195 209 199 194 190 186 181 175 171 166 161 157 152 147 142 137 133 129 123 118 113 108 102 95 91 88 85 
253 249 244 241 237 232 228 224 220 215 211 207 202 197 193 189 185 181 176 172 168 163 159 155 152 147 143 138 134 130 125 121 117 112 108 102 96 91 88 85 86 176 195 187 183 179 175 172 167 167 168 163 160 156 153 148 145 141 137 133 129 125 121 117 113 107 161 180 172 168 165 161 157 154 150 146 142 138 135 131 128 119 131 195 203 194 190 186 181 175 171 166 161 157 152 147 142 137 133 129 123 118 113 108 102 95 91 88 85 
253 249 244 241 237 232 228 224 220 215 211 207 202 197 193 189 185 181 176 172 168 163 159 155 152 147 143 138 134 130 125 121 117 112 108 102 96 91 89 82 117 199 192 187 183 179 175 172 164 193 237 230 226 222 219 215 211 207 203 199 195 192 188 184 180 176 178 176 172 168 165 161 157 154 150 146 142 138 135 131 127 124 115 128 192 198 190 186 181 175 171 166 161 157 152 147 142 137 133 129 123 118 113 108 102 95 91 88 85 
253 249 244 241 237 232 228 224 220 215 211 207 202 197 193 189 185 181 176 172 168 163 159 155 152 147 143 138 134 130 125 121 117 112 108 102 96 91 88 84 167 200 191 187 183 179 175 172 163 197 247 239 235 231 228 224 220 216 212 208 205 201 197 194 190 186 181 176 172 168 165 161 157 154 150 146 142 138 135 131 127 123 120 111 129 188 193 185 181 175 171 166 161 157 152 147 142 137 133 129 123 118 113 108 102 95 91 88 85 
253 249 244 241 237 232 228 224 220 215 211 207 202 197 193 189 185 181 176 172 168 163 159 155 152 147 143 138 134 130 125 121 117 112 108 102 96 91 85 121 202 195 191 187 183 179 175 172 163 196 245 237 233 229 226 222 218 215 210 206 203 199 195 192 188 184 180 176 172 168 165 161 157 154 150 146 142 138 135 131 127 123 120 116 107 126 187 188 180 175 171 166 161 157 152 147 142 137 133 129 123 118 113 108 102 95 91 88 85 
253 249 244 241 237 232 228 224 220 215 211 207 202 197 193 189 185 181 176 172 168 163 159 155 152 147 143 138 134 130 125 121 117 112 108 102 96 89 93 184 204 194 191 187 183 179 175 172 163 196 245 237 233 229 226 222 218 215 210 206 203 199 195 192 188 184 180 176 172 168 165 161 157 154 150 146 142 138 135 131 127 123 120 116 112 102 125 183 183 175 171 166 161 157 152 147 142 137 133 129 123 118 113 108 102 95 91 88 85 
253 249 244 241 237 232 228 224 220 215 211 207 202 197 193 189 185 181 176 172 168 163 159 155 152 147 143 138 134 130 125 121 117 112 108 102 96 86 153 209 198 194 191 187 183 179 175 172 163 196 245 237 233 229 226 222 218 215 210 206 203 199 195 192 188 184 180 176 172 168 165 161 157 154 150 146 142 138 135 131 127 123 120 116 112 108 97 124 180 177 170 166 161 157 152 147 142 137 133 129 123 118 113 108 102 95 91 88 85 
253 249 244 241 237 232 228 224 220 215 211 207 202 197 193 189 185 181 176 172 168 163 159 155 152 147 143 138 134 130 125 121 117 112 108 102 89 130 209 204 198 194 191 187 183 179 175 172 163 196 245 237 233 229 226 222 218 215 210 206 203 199 195 192 188 184 180 176 172 168 165 161 157 154 150 146 142 138 135 131 127 123 120 116 112 108 103 92 120 176 172 166 161 157 152 147 142 137 133 129 123 118 113 108 102 95 91 88 85 
253 249 244 241 237 232 228 224 220 215 211 207 202 197 193 189 185 181 176 172 168 163 159 155 152 147 143 138 134 130 125 121 117 112 108 95 123 205 210 202 198 194 191 187 183 179 175 172 163 196 245 237 233 229 226 222 218 215 210 206 203 199 195 192 188 184 180 176 172 168 165 161 157 154 150 146 142 138 135 131 127 123 120 116 112 108 103 97 88 121 173 167 161 157 152 147 142 137 133 129 123 118 113 108 102 95 91 88 85 
253 249 244 241 237 232 228 224 220 215 211 207 202 197 193 189 185 181 176 172 168 163 159 155 152 147 143 138 134 130 125 121 117 112 100 129 207 214 206 202 198 194 191 187 183 179 175 172 163 196 245 237 233 229 226 222 218 215 210 206 203 199 195 192 188 184 180 176 172 168 165 161 157 154 150 146 142 138 135 131 127 123 120 116 112 108 103 97 92 86 119 169 163 157 152 147 142 137 133 129 123 118 113 108 102 95 91 88 85 
253 249 244 241 237 232 228 224 220 215 211 207 202 197 193 189 185 181 176 172 168 163 159 155 152 147 143 138 134 130 125 122 113 105 147 214 218 210 206 202 198 194 191 187 183 179 175 172 163 196 245 237 233 229 226 222 218 215 210 206 203 199 195 192 188 184 180 176 172 168 165 161 157 154 150 146 142 138 135 131 127 123 120 116 112 108 103 97 92 89 85 121 165 158 152 147 142 137 133 129 123 118 113 108 102 95 91 88 85 
253 249 244 241 237 232 228 224 220 215 211 207 202 197 193 189 185 181 176 172 168 163 159 155 152 147 143 138 134 130 122 113 124 179 224 220 214 210 206 202 198 194 191 187 183 179 175 172 163 194 245 237 233 229 226 222 218 215 210 206 203 199 195 192 188 184 180 176 172 168 165 161 157 154 150 146 142 138 135 131 127 123 120 116 112 108 103 97 92 89 87 82 120 162 153 147 142 137 133 129 123 118 113 108 102 95 91 88 85 
253 249 244 241 237 232 228 224 220 215 211 207 202 197 193 189 185 181 176 172 168 163 159 155 152 147 141 134 128 126 135 171 218 232 222 217 214 210 206 202 198 194 191 187 183 179 175 172 163 188 245 237 233 229 226 222 218 215 210 206 203 199 195 192 188 184 180 176 172 168 165 161 157 154 150 146 142 138 135 131 127 123 120 116 112 108 103 97 92 89 88 85 82 117 155 147 142 137 133 129 123 118 113 108 102 95 91 88 85 
253 249 245 243 239 235 232 229 225 221 217 214 210 207 203 199 197 193 188 186 182 178 175 171 168 162 169 181 192 213 233 241 235 229 226 223 220 217 213 210 207 203 202 198 194 192 187 181 173 196 246 239 236 233 230 227 224 221 217 213 211 208 204 202 198 195 192 188 186 182 179 176 172 171 167 164 160 157 154 151 148 144 141 138 135 132 128 122 118 116 115 113 110 108 141 166 160 156 152 149 144 141 136 132 127 121 118 115 113 
